<svg xmlns="http://www.w3.org/2000/svg" xmlns:xlink="http://www.w3.org/1999/xlink" contentStyleType="text/css" data-diagram-type="DESCRIPTION" height="509px" preserveAspectRatio="none" style="width:1596px;height:509px;background:#FFFFFF;" version="1.1" viewBox="0 0 1596 509" width="1596px" zoomAndPan="magnify"><?plantuml 1.2026.7beta1?><defs/><g><!--cluster Inputs--><g class="cluster" data-qualified-name="Inputs" data-source-line="26" id="ent0001"><path d="M13.5,181.91 L57.5195,181.91 A3.75,3.75 0 0 1 60.0195,184.41 L67.0195,201.8788 L276.5,201.8788 A2.5,2.5 0 0 1 279,204.3788 L279,305.32 A2.5,2.5 0 0 1 276.5,307.82 L13.5,307.82 A2.5,2.5 0 0 1 11,305.32 L11,184.41 A2.5,2.5 0 0 1 13.5,181.91" fill="#FFFFFF" style="stroke:#000000;stroke-width:1;"/><line style="stroke:#000000;stroke-width:1;" x1="11" x2="67.0195" y1="201.8788" y2="201.8788"/><text fill="#000000" font-family="Segoe UI" font-size="12" font-weight="700" lengthAdjust="spacing" textLength="43.0195" x="15" y="195.0487">Inputs</text></g><!--cluster Core Components--><g class="cluster" data-qualified-name="Core Components" data-source-line="31" id="ent0004"><path d="M305.5,11 L426.2773,11 A3.75,3.75 0 0 1 428.7773,13.5 L435.7773,30.9688 L1109.5,30.9688 A2.5,2.5 0 0 1 1112,33.4688 L1112,305.32 A2.5,2.5 0 0 1 1109.5,307.82 L305.5,307.82 A2.5,2.5 0 0 1 303,305.32 L303,13.5 A2.5,2.5 0 0 1 305.5,11" fill="#FFFFFF" style="stroke:#000000;stroke-width:1;"/><line style="stroke:#000000;stroke-width:1;" x1="303" x2="435.7773" y1="30.9688" y2="30.9688"/><text fill="#000000" font-family="Segoe UI" font-size="12" font-weight="700" lengthAdjust="spacing" textLength="119.7773" x="307" y="24.1387">Core Components</text></g><!--cluster Hosts--><g class="cluster" data-qualified-name="Hosts" data-source-line="39" id="ent0009"><path d="M924.5,354.82 L963.8086,354.82 A3.75,3.75 0 0 1 966.3086,357.32 L973.3086,374.7888 L1214.5,374.7888 A2.5,2.5 0 0 1 1217,377.2888 L1217,492.19 A2.5,2.5 0 0 1 1214.5,494.69 L924.5,494.69 A2.5,2.5 0 0 1 922,492.19 L922,357.32 A2.5,2.5 0 0 1 924.5,354.82" fill="#FFFFFF" style="stroke:#000000;stroke-width:1;"/><line style="stroke:#000000;stroke-width:1;" x1="922" x2="973.3086" y1="374.7888" y2="374.7888"/><text fill="#000000" font-family="Segoe UI" font-size="12" font-weight="700" lengthAdjust="spacing" textLength="38.3086" x="926" y="367.9587">Hosts</text></g><!--cluster Outputs--><g class="cluster" data-qualified-name="Outputs" data-source-line="44" id="ent0012"><path d="M1373.5,181.91 L1428.9922,181.91 A3.75,3.75 0 0 1 1431.4922,184.41 L1438.4922,201.8788 L1578.5,201.8788 A2.5,2.5 0 0 1 1581,204.3788 L1581,305.32 A2.5,2.5 0 0 1 1578.5,307.82 L1373.5,307.82 A2.5,2.5 0 0 1 1371,305.32 L1371,184.41 A2.5,2.5 0 0 1 1373.5,181.91" fill="#FFFFFF" style="stroke:#000000;stroke-width:1;"/><line style="stroke:#000000;stroke-width:1;" x1="1371" x2="1438.4922" y1="201.8788" y2="201.8788"/><text fill="#000000" font-family="Segoe UI" font-size="12" font-weight="700" lengthAdjust="spacing" textLength="54.4922" x="1375" y="195.0487">Outputs</text></g><!--entity SRC--><g class="entity" data-qualified-name="Inputs.SRC" data-source-line="27" id="ent0002"><rect fill="#F5E8F0" height="61.9063" rx="2.5" ry="2.5" style="stroke:#B85A8A;stroke-width:1;" width="97.0625" x="27.47" y="229.91"/><text fill="#4A1A3A" font-family="Segoe UI" font-size="12" font-style="italic" lengthAdjust="spacing" textLength="25.3594" x="63.3216" y="251.0487">&#171;io&#187;</text><text fill="#4A1A3A" font-family="Segoe UI" font-size="12" lengthAdjust="spacing" textLength="77.0625" x="37.47" y="265.0174">GPSS Source</text><text fill="#4A1A3A" font-family="Segoe UI" font-size="12" lengthAdjust="spacing" textLength="55.3477" x="37.47" y="278.9862">(text file)</text></g><!--entity VMODEL--><g class="entity" data-qualified-name="Inputs.VMODEL" data-source-line="28" id="ent0003"><rect fill="#F5E8F0" height="61.9063" rx="2.5" ry="2.5" style="stroke:#B85A8A;stroke-width:1;" width="103.6191" x="159.19" y="229.91"/><text fill="#4A1A3A" font-family="Segoe UI" font-size="12" font-style="italic" lengthAdjust="spacing" textLength="25.3594" x="198.3199" y="251.0487">&#171;io&#187;</text><text fill="#4A1A3A" font-family="Segoe UI" font-size="12" lengthAdjust="spacing" textLength="75.9316" x="169.19" y="265.0174">Visual Model</text><text fill="#4A1A3A" font-family="Segoe UI" font-size="12" lengthAdjust="spacing" textLength="83.6191" x="169.19" y="278.9862">(editor graph)</text></g><!--entity CONTRACTS--><g class="entity" data-qualified-name="Core Components.CONTRACTS" data-source-line="32" id="ent0005"><rect fill="#F5F0E8" height="61.9063" rx="2.5" ry="2.5" style="stroke:#B8A87A;stroke-width:1;" width="175.8652" x="920.07" y="59"/><text fill="#4A3F20" font-family="Segoe UI" font-size="12" font-style="italic" lengthAdjust="spacing" textLength="70.7754" x="972.6149" y="80.1387">&#171;contracts&#187;</text><text fill="#4A3F20" font-family="Segoe UI" font-size="12" lengthAdjust="spacing" textLength="91.1074" x="930.07" y="94.1074">Gpss.Contracts</text><text fill="#4A3F20" font-family="Segoe UI" font-size="12" lengthAdjust="spacing" textLength="155.8652" x="930.07" y="108.0762">Interfaces &#183; DTOs &#183; Enums</text></g><!--entity PARSER--><g class="entity" data-qualified-name="Core Components.PARSER" data-source-line="34" id="ent0006"><rect fill="#E8F0F5" height="61.9063" rx="2.5" ry="2.5" style="stroke:#5A8AB8;stroke-width:1;" width="109.2617" x="442.37" y="229.91"/><text fill="#1A3A5C" font-family="Segoe UI" font-size="12" font-style="italic" lengthAdjust="spacing" textLength="40.9395" x="476.5311" y="251.0487">&#171;core&#187;</text><text fill="#1A3A5C" font-family="Segoe UI" font-size="12" lengthAdjust="spacing" textLength="71.3262" x="452.37" y="265.0174">Gpss.Parser</text><text fill="#1A3A5C" font-family="Segoe UI" font-size="12" lengthAdjust="spacing" textLength="89.2617" x="452.37" y="278.9862">Lexer + Parser</text></g><!--entity MODEL--><g class="entity" data-qualified-name="Core Components.MODEL" data-source-line="35" id="ent0007"><rect fill="#E8F0F5" height="61.9063" rx="2.5" ry="2.5" style="stroke:#5A8AB8;stroke-width:1;" width="223.9004" x="611.05" y="229.91"/><text fill="#1A3A5C" font-family="Segoe UI" font-size="12" font-style="italic" lengthAdjust="spacing" textLength="40.9395" x="702.5305" y="251.0487">&#171;core&#187;</text><text fill="#1A3A5C" font-family="Segoe UI" font-size="12" lengthAdjust="spacing" textLength="69.2637" x="621.05" y="265.0174">Gpss.Model</text><text fill="#1A3A5C" font-family="Segoe UI" font-size="12" lengthAdjust="spacing" textLength="203.9004" x="621.05" y="278.9862">AST &#183; Semantic Nodes &#183; Validation</text></g><!--entity RUNTIME--><g class="entity" data-qualified-name="Core Components.RUNTIME" data-source-line="36" id="ent0008"><rect fill="#E8F0F5" height="61.9063" rx="2.5" ry="2.5" style="stroke:#5A8AB8;stroke-width:1;" width="128.8613" x="967.57" y="229.91"/><text fill="#1A3A5C" font-family="Segoe UI" font-size="12" font-style="italic" lengthAdjust="spacing" textLength="40.9395" x="1011.5309" y="251.0487">&#171;core&#187;</text><text fill="#1A3A5C" font-family="Segoe UI" font-size="12" lengthAdjust="spacing" textLength="83.8945" x="977.57" y="265.0174">Gpss.Runtime</text><text fill="#1A3A5C" font-family="Segoe UI" font-size="12" lengthAdjust="spacing" textLength="108.8613" x="977.57" y="278.9862">Simulation Engine</text></g><!--entity CLI--><g class="entity" data-qualified-name="Hosts.CLI" data-source-line="40" id="ent0010"><rect fill="#E8F5E8" height="61.9063" rx="2.5" ry="2.5" style="stroke:#5AB870;stroke-width:1;" width="69.7402" x="1131.13" y="409.8"/><text fill="#1A4A1A" font-family="Segoe UI" font-size="12" font-style="italic" lengthAdjust="spacing" textLength="40.5879" x="1145.7062" y="430.9387">&#171;host&#187;</text><text fill="#1A4A1A" font-family="Segoe UI" font-size="12" lengthAdjust="spacing" textLength="48.2813" x="1141.13" y="444.9074">Gpss.Cli</text><text fill="#1A4A1A" font-family="Segoe UI" font-size="12" lengthAdjust="spacing" textLength="49.7402" x="1141.13" y="458.8762">CLI Host</text></g><!--entity EDITOR--><g class="entity" data-qualified-name="Hosts.EDITOR" data-source-line="41" id="ent0011"><rect fill="#E8F5E8" height="75.875" rx="2.5" ry="2.5" style="stroke:#5AB870;stroke-width:1;" width="158.6035" x="937.7" y="402.82"/><text fill="#1A4A1A" font-family="Segoe UI" font-size="12" font-style="italic" lengthAdjust="spacing" textLength="40.5879" x="996.7078" y="423.9587">&#171;host&#187;</text><text fill="#1A4A1A" font-family="Segoe UI" font-size="12" lengthAdjust="spacing" textLength="68.748" x="947.7" y="437.9274">Gpss.Editor</text><text fill="#1A4A1A" font-family="Segoe UI" font-size="12" lengthAdjust="spacing" textLength="75.416" x="947.7" y="451.8962">Visual Editor</text><text fill="#1A4A1A" font-family="Segoe UI" font-size="12" lengthAdjust="spacing" textLength="138.6035" x="947.7" y="465.8649">Desktop &#183; Web &#183; Mobile</text></g><!--entity RESULTS--><g class="entity" data-qualified-name="Outputs.RESULTS" data-source-line="45" id="ent0013"><rect fill="#F5E8F0" height="61.9063" rx="2.5" ry="2.5" style="stroke:#B85A8A;stroke-width:1;" width="178.6895" x="1386.66" y="229.91"/><text fill="#4A1A3A" font-family="Segoe UI" font-size="12" font-style="italic" lengthAdjust="spacing" textLength="25.3594" x="1463.325" y="251.0487">&#171;io&#187;</text><text fill="#4A1A3A" font-family="Segoe UI" font-size="12" lengthAdjust="spacing" textLength="111.6035" x="1396.66" y="265.0174">Simulation Results</text><text fill="#4A1A3A" font-family="Segoe UI" font-size="12" lengthAdjust="spacing" textLength="158.6895" x="1396.66" y="278.9862">Report &#183; Events &#183; Statistics</text></g><!--link SRC to PARSER--><g class="link" data-entity-1="ent0002" data-entity-2="ent0006" data-link-type="dependency" data-source-line="49" id="lnk14"><path d="M90.46,229.46 C101.49,209.57 118.76,185.48 142,173.91 C196.81,146.63 356.28,173.38 417.5,173.32 C428.61,173.31 432.79,167.92 442.5,173.32 C463.94,185.23 476.0849,204.8581 484.5649,224.8181" fill="none" id="SRC-to-PARSER" style="stroke:#555555;stroke-width:1.5;"/><polygon fill="#555555" points="486.52,229.42,486.6823,219.5725,484.5649,224.8181,479.3193,222.7007,486.52,229.42" style="stroke:#555555;stroke-width:1.5;stroke-linejoin:miter;stroke-miterlimit:10;"/><text fill="#000000" font-family="Segoe UI" font-size="12" lengthAdjust="spacing" textLength="23.8945" x="418.5" y="163.0487">text</text></g><!--link PARSER to MODEL--><g class="link" data-entity-1="ent0006" data-entity-2="ent0007" data-link-type="dependency" data-source-line="50" id="lnk15"><path d="M552,260.86 C569.9,260.86 585.46,260.86 605.98,260.86" fill="none" id="PARSER-to-MODEL" style="stroke:#555555;stroke-width:1.5;"/><polygon fill="#555555" points="610.98,260.86,601.98,256.86,605.98,260.86,601.98,264.86,610.98,260.86" style="stroke:#555555;stroke-width:1.5;stroke-linejoin:miter;stroke-miterlimit:10;"/><text fill="#000000" font-family="Segoe UI" font-size="12" lengthAdjust="spacing" textLength="23.1563" x="569.84" y="254.9987">AST</text></g><!--link MODEL to RUNTIME--><g class="link" data-entity-1="ent0007" data-entity-2="ent0008" data-link-type="dependency" data-source-line="51" id="lnk16"><path d="M835.43,260.86 C879.78,260.86 924.13,260.86 962.29,260.86" fill="none" id="MODEL-to-RUNTIME" style="stroke:#555555;stroke-width:1.5;"/><polygon fill="#555555" points="967.29,260.86,958.29,256.86,962.29,260.86,958.29,264.86,967.29,260.86" style="stroke:#555555;stroke-width:1.5;stroke-linejoin:miter;stroke-miterlimit:10;"/><text fill="#000000" font-family="Segoe UI" font-size="12" lengthAdjust="spacing" textLength="96.9785" x="853.26" y="254.9987">validated model</text></g><!--link RUNTIME to RESULTS--><g class="link" data-entity-1="ent0008" data-entity-2="ent0013" data-link-type="dependency" data-source-line="52" id="lnk17"><path d="M1054.37,229.71 C1070.81,209.65 1095.07,185.27 1123,173.91 C1161.83,158.11 1350.77,170.81 1360,173.91 C1392.93,184.96 1420.3953,205.9586 1442.1053,226.1086" fill="none" id="RUNTIME-to-RESULTS" style="stroke:#555555;stroke-width:1.5;"/><polygon fill="#555555" points="1445.77,229.51,1441.8946,220.4557,1442.1053,226.1086,1436.4523,226.3193,1445.77,229.51" style="stroke:#555555;stroke-width:1.5;stroke-linejoin:miter;stroke-miterlimit:10;"/><text fill="#000000" font-family="Segoe UI" font-size="12" lengthAdjust="spacing" textLength="40.4648" x="1183" y="163.0487">results</text></g><!--reverse link RUNTIME to CLI--><g class="link" data-entity-1="ent0008" data-entity-2="ent0010" data-link-type="dependency" data-source-line="55" id="lnk19"><path d="M1068.3981,295.4825 C1084.2881,310.9925 1099.45,327.23 1114,346.82 C1128.66,366.55 1142.13,390.87 1151.68,409.68" fill="none" id="RUNTIME-backto-CLI" style="stroke:#555555;stroke-width:1.5;"/><polygon fill="#555555" points="1064.82,291.99,1068.4665,301.1389,1068.3981,295.4825,1074.0545,295.414,1064.82,291.99" style="stroke:#555555;stroke-width:1.5;stroke-linejoin:miter;stroke-miterlimit:10;"/><text fill="#000000" font-family="Segoe UI" font-size="12" lengthAdjust="spacing" textLength="45.9668" x="1107" y="335.9587">invokes</text></g><!--reverse link RESULTS to CLI--><g class="link" data-entity-1="ent0013" data-entity-2="ent0010" data-link-type="dependency" data-source-line="56" id="lnk21"><path d="M1418.7233,294.7287 C1355.4333,331.0487 1255.61,388.33 1201.35,419.47" fill="none" id="RESULTS-backto-CLI" style="stroke:#555555;stroke-width:1.5;"/><polygon fill="#555555" points="1423.06,292.24,1413.2631,293.2503,1418.7233,294.7287,1417.2449,300.1889,1423.06,292.24" style="stroke:#555555;stroke-width:1.5;stroke-linejoin:miter;stroke-miterlimit:10;"/><text fill="#000000" font-family="Segoe UI" font-size="12" lengthAdjust="spacing" textLength="33.5391" x="1367" y="335.9587">reads</text></g><!--reverse link RUNTIME to EDITOR--><g class="link" data-entity-1="ent0008" data-entity-2="ent0011" data-link-type="dependency" data-source-line="57" id="lnk23"><path d="M1019.9318,296.8357 C1016.9118,306.8157 1015.5,313.28 1014,323.82 C1010.28,349.93 1011.16,379.68 1012.89,402.5" fill="none" id="RUNTIME-backto-EDITOR" style="stroke:#555555;stroke-width:1.5;"/><polygon fill="#555555" points="1021.38,292.05,1014.9447,299.5057,1019.9318,296.8357,1022.6018,301.8228,1021.38,292.05" style="stroke:#555555;stroke-width:1.5;stroke-linejoin:miter;stroke-miterlimit:10;"/><text fill="#000000" font-family="Segoe UI" font-size="12" lengthAdjust="spacing" textLength="37.3652" x="1015" y="335.9587">model</text></g><!--link EDITOR to MODEL--><g class="link" data-entity-1="ent0011" data-entity-2="ent0007" data-link-type="dependency" data-source-line="58" id="lnk24"><path d="M950.9824,399.8111 C896.9024,367.0811 827.8377,325.2987 777.4877,294.8287" fill="none" id="EDITOR-MODEL" style="stroke:#555555;stroke-width:1.5;"/><polygon fill="#555555" points="955.26,402.4,949.6314,394.318,950.9824,399.8111,945.4892,401.1621,955.26,402.4" style="stroke:#555555;stroke-width:1.5;stroke-linejoin:miter;stroke-miterlimit:10;"/><polygon fill="#555555" points="773.21,292.24,778.8389,300.3218,777.4877,294.8287,782.9808,293.4775,773.21,292.24" style="stroke:#555555;stroke-width:1.5;stroke-linejoin:miter;stroke-miterlimit:10;"/><text fill="#000000" font-family="Segoe UI" font-size="12" lengthAdjust="spacing" textLength="60.0234" x="844" y="335.9587">round-trip</text></g><!--link VMODEL to EDITOR--><g class="link" data-entity-1="ent0003" data-entity-2="ent0011" data-link-type="dependency" data-source-line="60" id="lnk25"><path d="M255.26,292.14 C269.91,300.96 286.66,309.83 303,315.82 C523.77,396.68 797.7029,425.1712 932.2429,434.8512" fill="none" id="VMODEL-to-EDITOR" style="stroke:#555555;stroke-width:1.5;"/><polygon fill="#555555" points="937.23,435.21,928.5403,430.5744,932.2429,434.8512,927.9662,438.5538,937.23,435.21" style="stroke:#555555;stroke-width:1.5;stroke-linejoin:miter;stroke-miterlimit:10;"/><text fill="#000000" font-family="Segoe UI" font-size="12" lengthAdjust="spacing" textLength="35.127" x="359" y="335.9587">graph</text></g><!--link CONTRACTS to PARSER--><g class="link" data-entity-1="ent0005" data-entity-2="ent0006" data-link-type="dependency" data-source-line="63" id="lnk26"><path d="M919.76,92.55 C749.61,96.53 389.54,109.78 352,150.91 C316.87,189.4 383.0496,221.983 437.5696,241.393" fill="none" id="CONTRACTS-to-PARSER" style="stroke:#555555;stroke-width:1.5;stroke-dasharray:7,7;"/><polygon fill="#555555" points="442.28,243.07,435.1429,236.2831,437.5696,241.393,432.4597,243.8198,442.28,243.07" style="stroke:#555555;stroke-width:1.5;stroke-linejoin:miter;stroke-miterlimit:10;"/><text fill="#000000" font-family="Segoe UI" font-size="12" lengthAdjust="spacing" textLength="56.0918" x="353" y="163.0487">contracts</text></g><!--link CONTRACTS to MODEL--><g class="link" data-entity-1="ent0005" data-entity-2="ent0007" data-link-type="dependency" data-source-line="64" id="lnk27"><path d="M956.72,121.35 C905.11,151.93 830.2813,196.2807 778.6513,226.8807" fill="none" id="CONTRACTS-to-MODEL" style="stroke:#555555;stroke-width:1.5;stroke-dasharray:7,7;"/><polygon fill="#555555" points="774.35,229.43,784.1318,228.2823,778.6513,226.8807,780.0529,221.4002,774.35,229.43" style="stroke:#555555;stroke-width:1.5;stroke-linejoin:miter;stroke-miterlimit:10;"/><text fill="#000000" font-family="Segoe UI" font-size="12" lengthAdjust="spacing" textLength="56.0918" x="900" y="163.0487">contracts</text></g><!--link CONTRACTS to RUNTIME--><g class="link" data-entity-1="ent0005" data-entity-2="ent0008" data-link-type="dependency" data-source-line="65" id="lnk28"><path d="M1012.29,121.15 C1016.65,151.8 1022.6461,194.0298 1027.0061,224.6898" fill="none" id="CONTRACTS-to-RUNTIME" style="stroke:#555555;stroke-width:1.5;stroke-dasharray:7,7;"/><polygon fill="#555555" points="1027.71,229.64,1030.4031,220.1665,1027.0061,224.6898,1022.4827,221.2928,1027.71,229.64" style="stroke:#555555;stroke-width:1.5;stroke-linejoin:miter;stroke-miterlimit:10;"/><text fill="#000000" font-family="Segoe UI" font-size="12" lengthAdjust="spacing" textLength="56.0918" x="1019" y="163.0487">contracts</text></g><!--link CONTRACTS to CLI--><g class="link" data-entity-1="ent0005" data-entity-2="ent0010" data-link-type="dependency" data-source-line="66" id="lnk29"><path d="M1096.36,99.28 C1164.3,107.72 1250.15,123.54 1272,150.91 C1335.99,231.06 1247.6867,349.7184 1197.8767,405.9084" fill="none" id="CONTRACTS-to-CLI" style="stroke:#555555;stroke-width:1.5;stroke-dasharray:7,7;"/><polygon fill="#555555" points="1194.56,409.65,1203.5234,405.5686,1197.8767,405.9084,1197.5369,400.2618,1194.56,409.65" style="stroke:#555555;stroke-width:1.5;stroke-linejoin:miter;stroke-miterlimit:10;"/><text fill="#000000" font-family="Segoe UI" font-size="12" lengthAdjust="spacing" textLength="56.0918" x="1294" y="265.4987">contracts</text></g><!--link CONTRACTS to EDITOR--><g class="link" data-entity-1="ent0005" data-entity-2="ent0011" data-link-type="dependency" data-source-line="67" id="lnk30"><path d="M1061.15,121.3 C1080.6,134.97 1101.01,152.82 1114,173.91 C1149.64,231.76 1137.3,256.2 1144,323.82 C1144.66,330.45 1148.06,333.53 1144,338.82 C1135.59,349.76 1126.03,340.05 1114,346.82 C1088.79,360.99 1068.6294,379.5549 1051.0494,398.7249" fill="none" id="CONTRACTS-to-EDITOR" style="stroke:#555555;stroke-width:1.5;stroke-dasharray:7,7;"/><polygon fill="#555555" points="1047.67,402.41,1056.701,398.4804,1051.0494,398.7249,1050.8049,393.0734,1047.67,402.41" style="stroke:#555555;stroke-width:1.5;stroke-linejoin:miter;stroke-miterlimit:10;"/><text fill="#000000" font-family="Segoe UI" font-size="12" lengthAdjust="spacing" textLength="56.0918" x="1144" y="265.4987">contracts</text></g><?plantuml-src VLLDRzf04BtlhvZ2eOag8lA1Wg8eKWgqHI8XiabwuRBOOrXXTgtTTPAswk_glR-iixO1O-pknJBpvhtvU6i-s1Lk49AO2ydCMiY4Qxw1G6qI9L5Qt_w84JG6bijbZ2L8Y15FO_j5IVl8YSB7fK9u7jT3VF4JuVoY5BpNMhqDLAmqj7lPgGPdAn6i9He3vsSzLbST_690vpCFrakjKXbcVBUt0Ibg7bXpTmVjg1TriPy3bGvHru3SQI_wl7_DCw0hkG56m2j-6LrqMPEsnYsqZVse6_NgjFUW3DZZVRxe7siVmWXupYzvBsZGNYbZozgzkhxBe49xqR_kLhMhi4pxYf_p1csXzkYsKuwwnzfbK35prtbLkmhBPkuwPxyPIqYPBn5QOvcarhGA4-nDqVhwvFlWgrG7E9Sd5jyjH2B6qnP0YPiRyBr1DVT5c9J7yA12Z2aPGs79eKlDanNbRzCfz-LXEXnD3WeQqBfWiEMghImnvcomTTHSZgL57V403Vpz0yFPD7kEPBenJgpiFP8SJ1zdtlrWvhDQtYUk3UgvdE0xQlW4-NiBAcTdAs9yklVyaLVBLapWtf-vadpSS6b508_qSrRa2uz5oArGidL0cO-bZj5BYM53A_759espL6frAIIsckhpdXzduuVHmPI_aJ6RPnkBkHnCnk1GHwtl9Gftkw5EnhLCesppSraOOliwHBEsAd4J-8uBztXG2p9Nwu1qD1pFfjv1sTFKDjYrD0uF3NqmoHWU9ahRp0olpalP3Yo132t1x8peHZJodoTa2TBw24DkEKInUcDaxQpLZXRBbUtS5Qi6k05t8TZsTHVFzWOkJYjdsxTTkDW4XL_pnMC86sSHjetieNb51DLvEwuojmzgMahwAw5E3NDBSW9fKcAd725VrHghyO8ou-IXOVc0ZxFpaeheRQVKLvRhlbSTgqN2M7v_zrKNEJVvNNSbx-ufd8JSh30yPRiR26TdvP7kBce5iHzg4s8_roP4COZ_88hIouX_?></g></svg>